<svg xmlns="http://www.w3.org/2000/svg" version="1.1" xmlns:xlink="http://www.w3.org/1999/xlink" xmlns:svgjs="http://svgjs.dev/svgjs" width="1000" height="1000" viewBox="0 0 1000 1000"><rect width="1000" height="1000" fill="#fefee2"></rect><g transform="matrix(0.7,0,0,0.7,149.57575763249878,435.3319011918651)"><svg viewBox="0 0 396 74" data-background-color="#fefee2" preserveAspectRatio="xMidYMid meet" height="186" width="1000" xmlns="http://www.w3.org/2000/svg" xmlns:xlink="http://www.w3.org/1999/xlink"><defs></defs><g id="tight-bounds" transform="matrix(1,0,0,1,0.24000003209937404,-0.24547379568372207)"><svg viewBox="0 0 395.52 74.49094622191967" height="74.49094622191967" width="395.52"><g><svg viewBox="0 0 395.52 74.49094622191967" height="74.49094622191967" width="395.52"><g><svg viewBox="0 0 395.52 74.49094622191967" height="74.49094622191967" width="395.52"><g><svg viewBox="0 0 395.52 74.49094622191967" height="74.49094622191967" width="395.52"><g><svg viewBox="0 0 395.52 74.49094622191967" height="74.49094622191967" width="395.52"><g transform="matrix(1,0,0,1,0,0)"><svg width="395.52" viewBox="0.6500000357627869 -40.95000076293945 220.3300018310547 41.5" height="74.49094622191967" data-palette-color="#63e2b7"><path d="M14.5 0L7.1 0 7.1-35.05 0.65-35.05 0.65-40.5 20.85-40.5 20.85-35.05 14.5-35.05 14.5 0ZM32 0L24.65 0 24.65-40.5 32-40.5 32-23.55 40.25-23.55 40.25-40.5 47.65-40.5 47.65 0 40.25 0 40.25-18.3 32-18.3 32 0ZM61.34 0L54.05 0 54.05-40.5 61.34-40.5 61.34 0ZM73.89 0L67.59 0 67.59-40.5 72.74-40.5 82.59-17.4 82.59-40.5 88.69-40.5 88.69 0 83.79 0 73.89-24.2 73.89 0ZM102.24 0L94.84 0 94.84-40.5 102.24-40.5 102.24-22.7 110.24-40.5 117.29-40.5 109.54-22.4 118.09 0 110.74 0 103.94-18.45 102.24-15.35 102.24 0ZM140.53 0L133.14 0 133.14-40.5 149.79-40.5 149.79-35.4 140.53-35.4 140.53-23.6 148.09-23.6 148.09-18.45 140.53-18.45 140.53 0ZM157.48 0L150.53 0 158.63-40.5 166.53-40.5 174.63 0 167.78 0 166.18-9.35 159.13-9.35 157.48 0ZM162.63-31.05L159.88-14.05 165.38-14.05 162.63-31.05ZM188.68 0.55L188.68 0.55Q185.03 0.55 182.58-0.88 180.13-2.3 178.88-5.05 177.63-7.8 177.48-11.8L177.48-11.8 183.83-13.05Q183.93-10.7 184.41-8.9 184.88-7.1 185.86-6.13 186.83-5.15 188.43-5.15L188.43-5.15Q190.23-5.15 190.98-6.23 191.73-7.3 191.73-8.95L191.73-8.95Q191.73-11.6 190.53-13.3 189.33-15 187.33-16.7L187.33-16.7 182.23-21.2Q180.08-23.05 178.81-25.33 177.53-27.6 177.53-30.95L177.53-30.95Q177.53-35.75 180.33-38.35 183.13-40.95 187.98-40.95L187.98-40.95Q190.83-40.95 192.73-40.08 194.63-39.2 195.76-37.65 196.88-36.1 197.43-34.13 197.98-32.15 198.13-29.95L198.13-29.95 191.83-28.85Q191.73-30.75 191.41-32.25 191.08-33.75 190.26-34.6 189.43-35.45 187.83-35.45L187.83-35.45Q186.18-35.45 185.31-34.38 184.43-33.3 184.43-31.7L184.43-31.7Q184.43-29.65 185.28-28.33 186.13-27 187.73-25.6L187.73-25.6 192.78-21.15Q195.28-19.05 197.06-16.23 198.83-13.4 198.83-9.4L198.83-9.4Q198.83-6.5 197.56-4.25 196.28-2 194.01-0.73 191.73 0.55 188.68 0.55ZM214.63 0L207.23 0 207.23-35.05 200.78-35.05 200.78-40.5 220.98-40.5 220.98-35.05 214.63-35.05 214.63 0Z" opacity="1" transform="matrix(1,0,0,1,0,0)" fill="#63e2b7" class="undefined-text-0" data-fill-palette-color="primary" id="text-0"></path></svg></g></svg></g></svg></g></svg></g></svg></g></svg><rect width="395.52" height="74.49094622191967" fill="none" stroke="none" visibility="hidden"></rect></g></svg></g></svg>